<svg xmlns="http://www.w3.org/2000/svg" width="100" height="17" viewBox="0 0 100 17">
    <g fill="none" fill-rule="evenodd">
        <g>
            <g>
                <g>
                    <path fill="#FFF" d="M49.118 15.855v-2.312c-.844 1.648-2.422 2.587-4.49 2.587-4.067 0-6.711-2.976-6.711-7.692 0-4.945 2.822-8.059 6.934-8.059 3.4 0 5.667 1.763 6.223 5.266l-2.356.023c-.4-2.244-1.756-3.182-3.89-3.182-2.755 0-4.622 2.174-4.622 5.837v.206c0 3.457 1.778 5.54 4.623 5.54 2.178 0 3.845-1.442 3.956-3.594H45.14V8.484h5.956v7.371h-1.978zm7.301.275c-2.245 0-3.623-1.26-3.623-3.113 0-2.427 1.756-2.977 4.09-3.503 1.778-.39 2.867-.504 3.09-1.1v-.16c0-.892-.645-1.579-2.245-1.579-1.556 0-2.4.733-2.49 1.946v.137h-2.2c.067-2.426 1.934-3.892 4.712-3.892 2.689 0 4.29 1.237 4.29 3.984v5.334l.021 1.671h-2.11V14.23c-.712 1.282-2.023 1.9-3.535 1.9zm.4-1.717c1.534 0 2.978-.801 3.156-2.907v-1.328c-.644.458-1.756.64-2.778.893-1.2.32-2.178.71-2.178 1.854 0 .893.645 1.488 1.8 1.488zM66.365.425v15.43h-2.2V.425h2.2zm4.456 4.625v10.805h-2.2V5.05h2.2zm.09-4.121v2.38h-2.357V.93h2.356zM75.3.425v15.43h-2.2V.425h2.2zm6.878 15.613c-3.222 0-5.222-2.197-5.222-5.517 0-3.342 2.155-5.655 5.134-5.655 3.089 0 4.934 2.13 4.934 5.54v.825h-7.89c.133 1.854 1.266 2.976 3.044 2.976 1.779 0 2.556-.893 2.956-1.946l1.934.778c-.711 1.672-2.2 3-4.89 3zm-.133-9.34c-1.578 0-2.734 1.076-2.956 2.839h5.69c-.089-1.855-1.09-2.84-2.734-2.84zm11.324 7.44c1.89 0 3.09-1.396 3.09-3.594v-.092c0-2.266-1.179-3.685-3.046-3.685-1.866 0-3.067 1.419-3.067 3.685v.092c0 2.22 1.156 3.594 3.023 3.594zm0 1.9c-3.09 0-5.223-2.266-5.223-5.563 0-3.296 2.178-5.609 5.267-5.609 3.09 0 5.246 2.313 5.246 5.61 0 3.25-2.2 5.562-5.29 5.562z" transform="translate(-25 -28) translate(-2.595) translate(28 28)"/>
                    <g fill="#00B5AD" fill-rule="nonzero">
                        <path d="M16.597 13.454c-.83-.014-.983.209-1.674.907-1.56 1.58-3.683 2.466-5.896 2.464h-.701C3.728 16.825 0 13.073 0 8.445 0 3.818 3.728.065 8.326.065h.7c2.325 0 4.428.96 5.938 2.506.673.69.806.87 1.633.865.828-.005.973-.192 1.655-.887C19.814.958 21.945.063 24.168.067h.702c4.598 0 8.325 3.751 8.325 8.379s-3.727 8.38-8.325 8.38h-.702c-2.184.002-4.281-.862-5.836-2.405-.718-.71-.904-.951-1.735-.966zm-7.964 1.368c3.519 0 6.37-2.835 6.37-6.33 0-3.497-2.851-6.332-6.37-6.332-3.518 0-6.37 2.835-6.37 6.331 0 3.496 2.852 6.33 6.37 6.33zm15.756.096c3.47 0 6.283-2.856 6.283-6.379 0-3.523-2.813-6.379-6.283-6.379s-6.282 2.856-6.282 6.38c0 3.522 2.813 6.378 6.282 6.378z" transform="translate(-25 -28) translate(-2.595) translate(28 28)"/>
                    </g>
                </g>
            </g>
        </g>
    </g>
</svg>
