<svg xmlns="http://www.w3.org/2000/svg" width="139" height="24" viewBox="0 0 139 24">
    <g fill="none" fill-rule="evenodd">
        <g>
            <g>
                <g>
                    <path fill="#FFF" d="M68.964 22.384V19.12c-1.186 2.327-3.401 3.652-6.304 3.652-5.71 0-9.424-4.202-9.424-10.86 0-6.98 3.963-11.376 9.736-11.376 4.775 0 7.958 2.488 8.738 7.433l-3.308.032c-.561-3.167-2.465-4.492-5.46-4.492-3.87 0-6.491 3.07-6.491 8.242v.29c0 4.88 2.496 7.822 6.49 7.822 3.058 0 5.399-2.036 5.555-5.074h-5.118v-2.812h8.363v10.407h-2.777zm10.25.388c-3.15 0-5.086-1.778-5.086-4.396 0-3.426 2.466-4.201 5.742-4.945 2.497-.55 4.026-.71 4.338-1.551v-.226c0-1.26-.905-2.23-3.152-2.23-2.184 0-3.37 1.034-3.495 2.747v.194h-3.09c.094-3.426 2.716-5.495 6.616-5.495 3.776 0 6.023 1.746 6.023 5.624v7.53l.031 2.36h-2.964v-2.295c-.999 1.81-2.84 2.683-4.962 2.683zm.563-2.424c2.153 0 4.181-1.131 4.43-4.105V14.37c-.904.646-2.464.905-3.9 1.26-1.685.453-3.058 1.002-3.058 2.618 0 1.26.905 2.1 2.528 2.1zM93.179.6v21.784H90.09V.6h3.09zm6.257 6.529v15.255h-3.09V7.129h3.09zm.125-5.818v3.362h-3.308V1.31h3.308zm6.163-.71v21.783h-3.09V.6h3.09zm9.658 22.042c-4.525 0-7.333-3.103-7.333-7.79 0-4.718 3.027-7.983 7.208-7.983 4.338 0 6.928 3.006 6.928 7.822v1.163h-11.078c.187 2.618 1.778 4.202 4.275 4.202 2.496 0 3.589-1.26 4.15-2.747l2.715 1.099c-.998 2.359-3.09 4.234-6.865 4.234zm-.187-13.187c-2.216 0-3.839 1.519-4.15 4.008h7.988c-.125-2.618-1.53-4.008-3.838-4.008zm15.899 10.504c2.652 0 4.337-1.972 4.337-5.074v-.13c0-3.2-1.654-5.203-4.275-5.203-2.621 0-4.306 2.004-4.306 5.203v.13c0 3.135 1.623 5.074 4.244 5.074zm0 2.683c-4.338 0-7.333-3.2-7.333-7.854s3.058-7.919 7.395-7.919c4.338 0 7.365 3.265 7.365 7.919 0 4.59-3.09 7.854-7.427 7.854z" transform="translate(-651 -186) translate(509 157) translate(142 29)"/>
                    <g fill="#00B5AD" fill-rule="nonzero">
                        <path d="M23.303 18.994c-1.165-.02-1.38.295-2.35 1.28-2.191 2.23-5.172 3.482-8.28 3.479h-.984C5.234 23.753 0 18.456 0 11.923S5.234.093 11.69.093h.984c3.264 0 6.216 1.354 8.336 3.537.945.973 1.132 1.228 2.293 1.221 1.162-.007 1.366-.271 2.324-1.252C27.82 1.352 30.812.089 33.933.094h.985c6.456 0 11.69 5.297 11.69 11.83s-5.234 11.83-11.69 11.83h-.985c-3.067.004-6.011-1.216-8.195-3.395-1.008-1.004-1.269-1.343-2.435-1.364zm-11.181 1.93c4.94 0 8.944-4 8.944-8.937 0-4.935-4.004-8.937-8.944-8.937-4.94 0-8.944 4.002-8.944 8.937 0 4.936 4.004 8.937 8.944 8.937zm22.122.137c4.871 0 8.82-4.032 8.82-9.006 0-4.973-3.949-9.005-8.82-9.005-4.872 0-8.821 4.032-8.821 9.005 0 4.974 3.949 9.006 8.82 9.006z" transform="translate(-651 -186) translate(509 157) translate(142 29)"/>
                    </g>
                </g>
            </g>
        </g>
    </g>
</svg>
