<svg xmlns="http://www.w3.org/2000/svg" width="286" height="170" viewBox="0 0 286 170">
    <g fill="none" fill-rule="evenodd">
        <g fill="#FFF">
            <g>
                <path fill-opacity=".1" d="M245.162 169.293H80.024c-22.363-.712-40.199-18.911-40.458-41.285 0-20.642 14.862-37.981 34.679-40.458v-.826c-.026-21.874 14.312-41.17 35.263-47.454 20.951-6.286 43.543 1.93 55.562 20.206 11.406-7.862 26.224-8.775 38.509-2.373s20.025 19.07 20.115 32.924v1.651c6.28-3.642 13.383-5.63 20.642-5.78 22.8 0 41.285 18.484 41.285 41.285 0 22.8-18.484 41.284-41.285 41.284l.826.826z" transform="translate(-829 -324) translate(829 324)"/>
                <g fill-opacity=".2" fill-rule="nonzero">
                    <path d="M11.686 48.996c2.685 15.036 16.11 26.85 31.683 26.85 13.425 0 24.702-8.055 29.535-19.332l-8.055-7.518h22.017v21.48L80.96 64.57c-7.518 12.888-21.48 22.017-37.59 22.017-21.48 0-39.738-16.647-42.423-37.59zM44.176.666c22.156 0 39.988 16.647 42.69 37.59H76.06c-2.702-15.036-15.671-26.85-31.883-26.85-12.969 0-24.317 8.055-29.18 19.332l7.565 7.518H.946v-21.48l5.944 5.907C13.915 9.258 27.965.666 44.176.666z" transform="translate(-829 -324) translate(829 324) translate(107.241 70.87)"/>
                </g>
                <path fill-opacity=".2" fill-rule="nonzero" d="M171.543 35.8c.001-9.887 8.014-17.902 17.9-17.907-4.747.002-9.3-1.882-12.657-5.238-3.357-3.356-5.243-7.908-5.243-12.655.001 9.884-8.01 17.897-17.893 17.9 9.884.003 17.894 8.016 17.893 17.9zM17.893 167.405c.001-9.887 8.013-17.903 17.9-17.908-4.747.002-9.3-1.882-12.657-5.238-3.357-3.355-5.243-7.908-5.243-12.654 0 9.883-8.01 17.897-17.893 17.9 9.884.002 17.894 8.016 17.893 17.9zM45.043 50.67c6.91 0 6.922-10.74 0-10.74-6.91 0-6.922 10.74 0 10.74z" transform="translate(-829 -324) translate(829 324)"/>
            </g>
        </g>
    </g>
</svg>
