<svg xmlns="http://www.w3.org/2000/svg" width="192" height="96" viewBox="0 0 192 96">
    <g fill="none" fill-rule="evenodd">
        <g fill="#FFF">
            <g>
                <g fill-opacity=".2" fill-rule="nonzero">
                    <path d="M32.649 18.8c0-4.97 4.03-9.001 9.001-9.004-2.387.001-4.676-.946-6.365-2.633C33.597 5.475 32.65 3.187 32.65.8c0 4.97-4.028 8.999-8.999 9 4.97.001 9 4.03 8.999 9zM182.998 61.405c0-4.971 4.03-9.002 9.002-9.004-2.387 0-4.677-.946-6.365-2.634-1.688-1.687-2.637-3.976-2.637-6.362 0 4.969-4.028 8.998-8.998 9 4.97.001 8.999 4.03 8.998 9zM3.73 80.67c4.663 0 4.67-7 0-7-4.663 0-4.67 7 0 7z" transform="translate(-752 -247) translate(752 247)"/>
                </g>
                <path fill-opacity=".2" d="M50.137 58.353L92.33 76.047c3.057-2.043 7.094-2.42 10.596-.635 5.162 2.63 7.208 8.959 4.57 14.135-2.637 5.176-8.96 7.24-14.121 4.61-3.502-1.784-5.57-5.27-5.715-8.945L48.545 61.477l1.592-3.124zM39.865 81v2.184h-8.507v3.356h5.468v2.095h-5.468v3.225H40V94H29V81h10.865zM166 81v2.184h-7.83v3.356h5.033v2.095h-5.033L158.17 94H156V81h10z" transform="translate(-752 -247) translate(752 247)"/>
                <path fill-opacity=".1" d="M98.459 15c32.99 0 60.825 21.788 69.541 51.58-1.988.695-9.348 3.105-22.077 7.231l-.583.189-1.465-4.917c8.986-2.892 13.715-4.408 14.188-4.548-8.744-23.176-30.966-39.876-57.26-40.817v14.42h-4.688v-14.42c-26.309.941-48.54 17.659-57.275 40.854.092-.077 4.728 1.426 13.91 4.511l-1.466 4.339.013.001-.306-.001c-14.478-4.764-21.807-7.138-21.988-7.123C37.808 36.652 65.572 15 98.46 15z" transform="translate(-752 -247) translate(752 247)"/>
            </g>
        </g>
    </g>
</svg>
