<svg xmlns="http://www.w3.org/2000/svg" width="64" height="64" viewBox="0 0 64 64">
    <g fill="none" fill-rule="evenodd">
        <g fill="#58B080" fill-rule="nonzero">
            <g>
                <g>
                    <path d="M32 0c17.664 0 32 14.336 32 32S49.664 64 32 64 0 49.664 0 32 14.336 0 32 0zm0 2.56C15.744 2.56 2.56 15.744 2.56 32S15.744 61.44 32 61.44 61.44 48.256 61.44 32 48.256 2.56 32 2.56zm16.512 16.384l1.792 1.792-24.32 24.32-12.288-12.288 1.792-1.792 10.496 10.368 22.528-22.4z" transform="translate(-688 -363) translate(362 101) translate(326 262)"/>
                </g>
            </g>
        </g>
    </g>
</svg>
