<svg xmlns="http://www.w3.org/2000/svg" width="37" height="34" viewBox="0 0 37 34">
    <g fill="none" fill-opacity=".503" fill-rule="evenodd">
        <g fill="#FFF" fill-rule="nonzero">
            <g>
                <g>
                    <g>
                        <path d="M27.705.142c-3.056 0-5.68 1.87-6.796 4.525H2.067C.93 4.667 0 5.592 0 6.73v6.074c0 .594.26 1.12.664 1.496-.403.376-.664.902-.664 1.496v6.074c0 .594.26 1.12.664 1.497-.403.376-.664.902-.664 1.496v6.074C0 32.075.93 33 2.067 33h26.466c1.137 0 2.067-.925 2.067-2.063v-6.074c0-.594-.26-1.12-.664-1.496.403-.377.664-.903.664-1.497v-6.074c0-.521-.212-.983-.531-1.345 2.899-.991 5.002-3.712 5.002-6.942 0-4.062-3.304-7.367-7.366-7.367zm0 1.134c3.438 0 6.233 2.794 6.233 6.233 0 3.407-2.75 6.177-6.145 6.224h-.177c-3.395-.047-6.145-2.817-6.145-6.224-.002-3.439 2.797-6.233 6.234-6.233zm-.585 2.842v2.775h-2.824v1.134h2.824V10.9h1.134V8.027h2.829V6.893h-2.83V4.118H27.12zM2.067 5.8h18.488c-.132.55-.217 1.117-.217 1.709 0 2.627 1.39 4.921 3.466 6.224H2.067c-.512 0-.934-.417-.934-.93V6.73c0-.515.422-.93.934-.93zm1.9 3.4v1.133h9.066V9.2H3.967zm-1.9 5.667h25.55c.029 0 .056.009.088.009.031 0 .056-.01.088-.01h.744c.515 0 .93.418.93.93v6.074c0 .515-.418.93-.93.93H2.067c-.512 0-.934-.417-.934-.93v-6.074c0-.514.422-.93.934-.93zm23.477 3.285c-.374 0-.677.307-.677.681 0 .374.303.682.677.682.377 0 .686-.308.686-.682 0-.374-.31-.681-.686-.681zm-21.577.115V19.4h9.066v-1.133H3.967zm-1.9 5.666h26.47c.515 0 .93.418.93.93v6.074c0 .515-.418.93-.93.93H2.067c-.514 0-.934-.418-.934-.93v-6.074c0-.515.422-.93.934-.93zm23.42 3.285c-.374 0-.682.308-.682.682 0 .374.308.682.682.682.376 0 .681-.308.681-.682 0-.374-.305-.682-.681-.682zm-21.52.115v1.134h9.066v-1.134H3.967z" transform="translate(-481 -404) translate(362 101) translate(36 264) translate(83.274 39.756)"/>
                    </g>
                </g>
            </g>
        </g>
    </g>
</svg>
