<svg xmlns="http://www.w3.org/2000/svg" width="18" height="18" viewBox="0 0 18 18">
    <g fill="none" fill-opacity=".503" fill-rule="evenodd">
        <g fill="#FFF" fill-rule="nonzero">
            <g>
                <g>
                    <path d="M17.312 11.524c.24.557.027 1.206-.498 1.512l-7.212 4.202c-.373.217-.834.217-1.207 0l-7.212-4.202c-.487-.284-.706-.864-.542-1.392l.044-.121 7.726 4.347c.365.205.81.205 1.176 0l7.725-4.346zm0-2.944c.24.557.027 1.206-.498 1.512l-7.212 4.202c-.373.218-.834.218-1.207 0l-7.212-4.202C.696 9.808.477 9.228.641 8.701l.044-.121 7.726 4.348c.365.205.81.205 1.176 0l7.725-4.348zM8.392.74c.375-.22.84-.22 1.214 0l7.21 4.223c.368.216.594.61.594 1.037 0 .426-.227.82-.596 1.036l-7.21 4.202c-.374.218-.835.218-1.209 0l-7.21-4.202C.815 6.82.59 6.427.588 6c0-.426.224-.82.592-1.037zm1.213 1.391c-.375-.219-.838-.219-1.212 0L1.788 6l6.607 3.85c.374.218.835.218 1.209 0L16.21 6z" transform="translate(-318 -282) translate(290 145) translate(28 137)"/>
                </g>
            </g>
        </g>
    </g>
</svg>
