<svg xmlns="http://www.w3.org/2000/svg" width="16" height="16" viewBox="0 0 16 16">
    <g fill="none" fill-opacity=".503" fill-rule="evenodd">
        <g fill="#FFF" fill-rule="nonzero">
            <g>
                <g>
                    <g>
                        <g>
                            <path d="M14.55 13.566l-2.596-2.577c2.092-2.61 1.78-6.401-.71-8.634C8.754.12 4.954.225 2.59 2.592.226 4.958.122 8.76 2.353 11.252c2.232 2.492 6.02 2.804 8.629.71l2.574 2.577c.131.132.31.207.497.207.186 0 .365-.075.496-.207.262-.271.262-.702 0-.973zm-7.493-1.604c-2.705 0-4.897-2.194-4.897-4.9 0-2.707 2.192-4.901 4.897-4.901 2.704 0 4.897 2.194 4.897 4.9 0 1.3-.516 2.547-1.434 3.466-.919.92-2.164 1.435-3.463 1.435z" transform="translate(-1283 -511) translate(375.595 327) translate(0 171) translate(899 7) translate(9.027 6.955)"/>
                        </g>
                    </g>
                </g>
            </g>
        </g>
    </g>
</svg>
