<svg xmlns="http://www.w3.org/2000/svg" width="101" height="65" viewBox="0 0 101 65">
    <g fill="none" fill-opacity=".2" fill-rule="evenodd">
        <g fill="#FFF" fill-rule="nonzero">
            <g>
                <g>
                    <path d="M353.74 94.752c0-.266.044-.533.044-.8 0-14.444-11.563-26.133-25.826-26.133-10.29 0-19.13 6.089-23.281 14.889-1.808-.911-3.84-1.445-5.983-1.445-6.584 0-12.075 4.867-13.125 11.223-7.901 2.71-13.549 10.244-13.549 19.11 0 11.156 8.951 20.223 19.978 20.223h22.88V114.04h-10.76l17.902-18.6 17.902 18.578h-10.759v17.778h24.62c10.09 0 18.237-8.334 18.237-18.534s-8.192-18.489-18.28-18.51z" transform="translate(-670 -597) translate(362 101) translate(36 429)"/>
                </g>
            </g>
        </g>
    </g>
</svg>
