<?xml version="1.0" standalone="no"?>
<!DOCTYPE svg PUBLIC "-//W3C//DTD SVG 20010904//EN"
 "http://www.w3.org/TR/2001/REC-SVG-20010904/DTD/svg10.dtd">
<svg version="1.0" xmlns="http://www.w3.org/2000/svg"
 width="140.000000pt" height="140.000000pt" viewBox="0 0 140.000000 140.000000"
 preserveAspectRatio="xMidYMid meet">
<metadata>
Created by potrace 1.11, written by Peter Selinger 2001-2013
</metadata>
<g transform="translate(0.000000,140.000000) scale(0.100000,-0.100000)"
fill="#000000" stroke="none">
<path d="M263 1044 c-98 -25 -184 -98 -231 -194 -23 -47 -26 -68 -26 -145 0
-75 4 -99 25 -145 45 -98 132 -175 225 -199 46 -12 152 -15 199 -6 50 10 115
46 167 92 63 56 91 57 149 3 24 -22 69 -53 99 -68 50 -24 65 -27 165 -27 97 0
116 3 160 25 129 63 207 195 200 340 -8 180 -151 325 -331 335 -84 5 -156 -9
-214 -43 -25 -14 -47 -28 -50 -31 -25 -30 -82 -69 -97 -66 -10 2 -23 4 -29 4
-6 1 -24 13 -40 29 -77 73 -145 103 -249 107 -38 1 -94 -3 -122 -11z m227
-110 c238 -129 150 -495 -120 -498 -153 -2 -272 114 -272 264 0 202 215 330
392 234z m654 2 c191 -94 193 -378 2 -479 -56 -29 -174 -31 -230 -3 -173 86
-203 319 -57 447 81 72 184 84 285 35z"/>
</g>
</svg>
