<svg xmlns="http://www.w3.org/2000/svg" width="21" height="21" viewBox="0 0 21 21">
    <g fill="none" fill-rule="evenodd">
        <g fill="#90ACCA" fill-rule="nonzero">
            <g>
                <g>
                    <g>
                        <path d="M16.667 0C18.5 0 20 1.5 20 3.333v13.334C20 18.5 18.5 20 16.667 20H3.333C1.5 20 0 18.5 0 16.667V3.333C0 1.5 1.5 0 3.333 0h13.334zM5.833 1.666h-2.5c-.916 0-1.666.75-1.666 1.667v13.334c0 .916.75 1.666 1.666 1.666h2.5V1.666zm10.834 0H7.5v16.667h9.167c.916 0 1.666-.75 1.666-1.666V3.333c0-.916-.75-1.666-1.666-1.666zm-1.917 5.25c.333.334.333.834 0 1.167L12.833 10l1.917 1.917c.333.333.333.833 0 1.166-.167.167-.333.25-.583.25-.25 0-.417-.083-.584-.25l-2.5-2.5c-.333-.333-.333-.833 0-1.166l2.5-2.5c.334-.334.834-.334 1.167 0z" transform="translate(-24 -431) translate(-2.595) translate(20.085 425.955) translate(7 6)"/>
                    </g>
                </g>
            </g>
        </g>
    </g>
</svg>
