<svg xmlns="http://www.w3.org/2000/svg" width="35" height="17" viewBox="0 0 35 17">
    <g fill="none" fill-rule="evenodd">
        <g fill="#00B5AD" fill-rule="nonzero">
            <g>
                <g>
                    <path d="M16.597 13.454c-.83-.014-.983.209-1.674.907-1.56 1.58-3.683 2.466-5.896 2.464h-.701C3.728 16.825 0 13.073 0 8.445 0 3.818 3.728.065 8.326.065h.7c2.325 0 4.428.96 5.938 2.506.673.69.806.87 1.633.865.828-.005.973-.192 1.655-.887C19.814.958 21.945.063 24.168.067h.702c4.598 0 8.325 3.751 8.325 8.379s-3.727 8.38-8.325 8.38h-.702c-2.184.002-4.281-.862-5.836-2.405-.718-.71-.904-.951-1.735-.966zm-7.964 1.368c3.519 0 6.37-2.835 6.37-6.33 0-3.497-2.851-6.332-6.37-6.332-3.518 0-6.37 2.835-6.37 6.331 0 3.496 2.852 6.33 6.37 6.33zm15.756.096c3.47 0 6.283-2.856 6.283-6.379 0-3.523-2.813-6.379-6.283-6.379s-6.282 2.856-6.282 6.38c0 3.522 2.813 6.378 6.282 6.378z" transform="translate(-16 -28) translate(-1.595) translate(18 28)"/>
                </g>
            </g>
        </g>
    </g>
</svg>
